<mxfile host="app.diagrams.net" modified="2023-11-24T00:51:07.132Z" agent="Mozilla/5.0 (Windows NT 10.0; Win64; x64) AppleWebKit/537.36 (KHTML, like Gecko) Chrome/119.0.0.0 Safari/537.36 Edg/119.0.0.0" version="22.1.3" etag="qi_0mfbv4yUnHB8QBtXu" type="github">
  <diagram name="Page-1" id="mxWsCOFL42LeMzO59zyG">
    <mxGraphModel>
      <root>
        <mxCell id="0" />
        <mxCell id="1" parent="0" />
      </root>
    </mxGraphModel>
  </diagram>
</mxfile>
